<?xml version="1.0" encoding="UTF-8" standalone="no"?>
<svg width="122px" height="50px" viewBox="0 0 122 50" version="1.1" xmlns="http://www.w3.org/2000/svg" xmlns:xlink="http://www.w3.org/1999/xlink" xmlns:sketch="http://www.bohemiancoding.com/sketch/ns">
    <!-- Generator: Sketch 3.3.2 (12043) - http://www.bohemiancoding.com/sketch -->
    <title>logo-kleur</title>
    <desc>Created with Sketch.</desc>
    <defs></defs>
    <g id="Ludens---Desktop" stroke="none" stroke-width="1" fill="none" fill-rule="evenodd" sketch:type="MSPage">
        <g id="00.-homepage" sketch:type="MSArtboardGroup" transform="translate(-120.000000, -20.000000)">
            <g id="menu" sketch:type="MSLayerGroup" transform="translate(80.000000, 0.000000)">
                <g id="logo-kleur" transform="translate(40.000000, 20.000000)" sketch:type="MSShapeGroup">
                    <path d="M44.8782093,8.52894737 C43.8578012,8.52894737 43.0296248,9.36052632 43.0296248,10.3802632 L43.0296248,23.2697368 C43.0296248,25.2723684 42.3791968,26.2302632 40.9848585,26.2302632 C39.5931534,26.2302632 38.9361422,25.2723684 38.9361422,23.2697368 L38.9361422,10.4026316 C38.9361422,10.3947368 38.9387755,10.3894737 38.9387755,10.3802632 C38.9387755,9.36052632 38.1119157,8.52894737 37.0862409,8.52894737 C36.0645161,8.52894737 35.2363397,9.36052632 35.2363397,10.3802632 L35.2363397,23.4868421 C35.2363397,27.3578947 37.2363397,29.5763158 40.9848585,29.5763158 C44.7307439,29.5763158 46.7320606,27.3578947 46.7320606,23.4868421 L46.7320606,10.3802632 C46.7320606,9.36052632 45.9038841,8.52894737 44.8782093,8.52894737 Z M82.6096116,8.49210526 C78.8610928,8.49210526 76.8584595,10.7118421 76.8584595,14.5828947 L76.8584595,27.6881579 C76.8584595,28.7105263 77.6892693,29.5368421 78.7136274,29.5368421 C79.7340355,29.5368421 80.5635286,28.7105263 80.5635286,27.6881579 L80.5635286,14.8 C80.5635286,12.8013158 81.2165899,11.8434211 82.6096116,11.8434211 C84.00395,11.8434211 84.6556945,12.8013158 84.6556945,14.8 L84.6556945,27.6473684 C84.6556945,27.6592105 84.6556945,27.6473684 84.6556945,27.6592105 C84.6556945,28.6828947 85.483871,29.5368421 86.5055958,29.5368421 C87.5273206,29.5368421 88.355497,28.7105263 88.355497,27.6881579 L88.355497,14.5828947 C88.355497,10.7118421 86.3528637,8.49210526 82.6096116,8.49210526 Z M34.1474654,27.7934211 C34.1474654,26.8315789 33.3693219,26.0539474 32.40158,26.0539474 C32.3831468,26.0539474 32.3660303,26.0565789 32.3462804,26.0565789 L30.3357472,26.0565789 C28.7689269,26.0565789 28.0289664,24.9671053 28.0289664,23.1802632 L28.0289664,4.8 C28.0276498,3.76710526 27.1889401,2.92763158 26.1527321,2.92763158 C25.120474,2.92763158 24.2817643,3.76710526 24.2817643,4.8 L24.2817643,23.3592105 C24.2817643,27.1013158 25.9354839,29.5368421 30.2488479,29.5368421 L32.4042133,29.5368421 C33.3706386,29.5368421 34.1474654,28.7552632 34.1474654,27.7934211 Z M66.5503621,12.7381579 C66.5503621,10.7368421 67.4641211,9.77894737 68.8531929,9.77894737 C70.2501646,9.77894737 71.1231073,10.7368421 71.1231073,12.7381579 L71.1231073,14.8710526 L66.5503621,17.2644737 L66.5503621,12.7381579 Z M74.8242265,16.9986842 L74.8242265,12.5184211 C74.8242265,8.64736842 72.604345,6.42894737 68.8531929,6.42894737 C65.1099408,6.42894737 62.8492429,8.64736842 62.8492429,12.5184211 L62.8492429,23.4421053 C62.8492429,27.3197368 65.1099408,29.5368421 68.8531929,29.5368421 C72.604345,29.5368421 74.8242265,27.3197368 74.8242265,23.4421053 L74.8242265,21.9644737 L74.8084266,21.9644737 C74.8123766,21.9184211 74.8242265,21.8736842 74.8242265,21.8263158 C74.8242265,20.8078947 73.99605,19.9802632 72.9703752,19.9802632 C71.9499671,19.9802632 71.1231073,20.8078947 71.1231073,21.8263158 C71.1231073,21.8736842 71.1323239,21.9184211 71.1362739,21.9644737 L71.1231073,21.9644737 L71.1231073,23.2263158 C71.1231073,25.2263158 70.2501646,26.1855263 68.8531929,26.1855263 C67.4641211,26.1855263 66.5503621,25.2263158 66.5503621,23.2263158 L66.5503621,21.0052632 L74.8242265,16.9986842 Z M99.1059908,17.8289474 L95.6655695,15.0881579 C94.4911126,14.1723684 94.2277814,13.6092105 94.2277814,12.3894737 C94.2277814,10.7368421 94.8808427,9.73552632 96.1856485,9.73552632 C97.5378539,9.73552632 98.1909151,10.8657895 98.1909151,12.7381579 L98.1909151,14.0460526 L98.1935484,14.0460526 C98.1935484,14.0526316 98.1909151,14.0605263 98.1909151,14.0671053 C98.1909151,15.0881579 99.0217248,15.9171053 100.0395,15.9171053 C101.062541,15.9171053 101.888084,15.0881579 101.888084,14.0671053 C101.888084,14.0605263 101.886768,14.0526316 101.886768,14.0460526 L101.893351,14.0460526 L101.893351,12.5184211 C101.893351,8.64736842 99.8472679,6.42894737 96.1856485,6.42894737 C92.5279789,6.42894737 90.5727452,8.64736842 90.5727452,12.3894737 C90.5727452,15.1736842 91.7037525,16.4802632 93.6616195,18.0473684 L97.1059908,20.7881579 C98.2804477,21.7052632 98.5385122,22.3552632 98.5385122,23.5736842 C98.5385122,25.3565789 97.5378539,26.2302632 96.1856485,26.2302632 C94.79526,26.2302632 93.8801843,25.2263158 93.8801843,23.2263158 L93.8801843,21.9644737 L93.877551,21.9644737 C93.8788677,21.9565789 93.8801843,21.95 93.8801843,21.9421053 C93.8801843,20.9236842 93.0520079,20.0947368 92.0263331,20.0947368 C91.005925,20.0947368 90.1764319,20.9236842 90.1764319,21.9421053 C90.1764319,21.95 90.1777485,21.9565789 90.1777485,21.9644737 L90.1764319,21.9644737 L90.1764319,23.4421053 C90.1764319,27.3197368 92.4450296,29.5368421 96.1856485,29.5368421 C99.8472679,29.5368421 102.197498,27.3197368 102.197498,23.5736842 C102.197498,20.7881579 101.066491,19.3973684 99.1059908,17.8289474 Z M57.0849243,23.2263158 C57.0849243,25.2263158 56.1672153,26.1407895 54.7768269,26.1407895 C53.3824885,26.1407895 52.4687294,25.2263158 52.4687294,23.2263158 L52.4687294,12.7381579 C52.4687294,10.7368421 53.3824885,9.77894737 54.7768269,9.77894737 C56.1672153,9.77894737 57.0849243,10.7368421 57.0849243,12.7381579 L57.0849243,23.2263158 Z M60.7886768,2.51184211 C60.7886768,1.49078947 59.9591837,0.663157895 58.9348255,0.663157895 C57.9117841,0.663157895 57.0849243,1.49078947 57.0849243,2.51184211 L57.0849243,8.16842105 C56.6925609,7.16710526 55.2100066,6.42894737 53.9486504,6.42894737 C50.4226465,6.42894737 48.7662936,8.60394737 48.7662936,12.5184211 L48.7662936,23.4421053 C48.7662936,27.3197368 51.0322581,29.5368421 54.7768269,29.5368421 C58.5213957,29.5368421 60.7886768,27.3197368 60.7886768,23.4421053 L60.7886768,2.51184211 L60.7886768,2.51184211 Z" id="Fill-3" fill="#1F272F"></path>
                    <g id="things" transform="translate(0.000000, 10.526316)" fill="#D91E43">
                        <path d="M8.04608295,7.80921053 C7.01250823,7.80921053 6.17116524,8.64342105 6.17116524,9.68157895 C6.17116524,10.7131579 7.01250823,11.55 8.04608295,11.55 L20.5464121,11.55 L20.5464121,7.80921053 L8.04608295,7.80921053" id="Fill-10"></path>
                        <path d="M20.2685978,15.2894737 L1.87360105,15.2894737 C0.841342989,15.2894737 0,16.1263158 0,17.1618421 C0,18.1947368 0.841342989,19.0328947 1.87360105,19.0328947 L20.4463463,19.0328947 C20.481896,19.0328947 20.5121791,19.0276316 20.5464121,19.0276316 L20.5464121,15.2710526 C20.4542462,15.2776316 20.3660303,15.2894737 20.2685978,15.2894737" id="Fill-12"></path>
                        <path d="M14.4871626,0.334210526 C13.4535879,0.334210526 12.6135616,1.17368421 12.6135616,2.20921053 C12.6135616,3.24078947 13.4535879,4.07894737 14.4871626,4.07894737 L20.5977617,4.07894737 L20.5977617,0.334210526 L14.4871626,0.334210526" id="Fill-9"></path>
                    </g>
                    <path d="M27.5036208,47.2776316 C27.124424,47.4184211 26.6675444,47.5052632 26.2119816,47.5052632 C25.1731402,47.5052632 24.6780777,47.1263158 24.6780777,46.1013158 L24.6780777,42.0973684 L23.5878868,42.0973684 L23.5878868,41.2144737 L24.6780777,41.2144737 L24.6780777,39.6960526 L25.7419355,39.5421053 L25.7419355,41.2144737 L27.4904542,41.2144737 L27.4022383,42.0973684 L25.7419355,42.0973684 L25.7419355,45.925 C25.7419355,46.3815789 25.8064516,46.6065789 26.3752469,46.6065789 C26.6675444,46.6065789 26.9716919,46.5578947 27.3640553,46.4565789 L27.5036208,47.2776316 L27.5036208,47.2776316 Z M32.2672811,44.8842105 L30.6951942,44.8842105 C30.0368664,44.8842105 29.7959184,45.0894737 29.7959184,45.7078947 C29.7959184,46.3407895 29.9104674,46.5947368 30.6701777,46.5947368 C31.2021066,46.5947368 31.7985517,46.3934211 32.2672811,46.0881579 L32.2672811,44.8842105 L32.2672811,44.8842105 Z M33.3311389,47.3815789 L32.4305464,47.3815789 L32.3686636,46.9236842 C31.8235681,47.3026316 31.1138907,47.5052632 30.3660303,47.5052632 C29.2139566,47.5052632 28.7320606,46.8210526 28.7320606,45.7342105 C28.7320606,44.4565789 29.3772219,44 30.6201448,44 L32.2672811,44 L32.2672811,43.0355263 C32.2672811,42.2657895 31.9249506,42 30.9242923,42 C30.3291639,42 29.556287,42.0973684 29.0730744,42.2013158 L28.959842,41.3526316 C29.5431205,41.2 30.3291639,41.0868421 30.9861751,41.0868421 C32.7491771,41.0868421 33.3311389,41.7697368 33.3311389,43.0881579 L33.3311389,47.3815789 L33.3311389,47.3815789 Z M35.2060566,47.3815789 L35.2060566,38.6921053 L36.2699144,38.5407895 L36.2699144,47.3815789 L35.2060566,47.3815789 L35.2060566,47.3815789 Z M39.0454246,43.8223684 L41.6932192,43.8223684 L41.6932192,43.3157895 C41.6932192,42.4539474 41.4022383,41.9723684 40.4002633,41.9723684 C39.399605,41.9723684 39.0454246,42.4539474 39.0454246,43.3157895 L39.0454246,43.8223684 L39.0454246,43.8223684 Z M40.5148124,46.5947368 C41.1231073,46.5947368 41.7946017,46.4815789 42.4660961,46.3052632 L42.604345,47.1513158 C42.0223831,47.3684211 41.1981567,47.5052632 40.4252798,47.5052632 C38.6017117,47.5052632 37.9802502,46.6328947 37.9802502,45.2394737 L37.9802502,43.3907895 C37.9802502,42.1144737 38.562212,41.0868421 40.4002633,41.0868421 C42.2251481,41.0868421 42.718894,42.1381579 42.718894,43.4157895 L42.718894,44.7078947 L39.0454246,44.7078947 L39.0454246,45.2263158 C39.0454246,46.2013158 39.3113891,46.5947368 40.5148124,46.5947368 L40.5148124,46.5947368 Z M48.1158657,47.3815789 L48.1158657,42.6710526 C48.1158657,42.2657895 47.9131007,42.0973684 47.5207373,42.0973684 C47.0651745,42.0973684 46.114549,42.3776316 45.4549045,42.7210526 L45.4549045,47.3815789 L44.3897301,47.3815789 L44.3897301,41.2144737 L45.2521396,41.2144737 L45.3548387,41.7460526 C46.0368664,41.4157895 47.1020408,41.0868421 47.8367347,41.0868421 C48.8242265,41.0868421 49.1810402,41.7078947 49.1810402,42.6565789 L49.1810402,47.3815789 L48.1158657,47.3815789 L48.1158657,47.3815789 Z M54.3620803,47.2776316 C53.9815668,47.4184211 53.5246873,47.5052632 53.0691244,47.5052632 C52.0302831,47.5052632 51.5365372,47.1263158 51.5365372,46.1013158 L51.5365372,42.0973684 L50.4450296,42.0973684 L50.4450296,41.2144737 L51.5365372,41.2144737 L51.5365372,39.6960526 L52.600395,39.5421053 L52.600395,41.2144737 L54.3489138,41.2144737 L54.2606978,42.0973684 L52.600395,42.0973684 L52.600395,45.925 C52.600395,46.3815789 52.6635945,46.6065789 53.2337064,46.6065789 C53.5246873,46.6065789 53.8301514,46.5578947 54.2225148,46.4565789 L54.3620803,47.2776316 L54.3620803,47.2776316 Z M57.9855168,42.0105263 C57.0204082,42.0105263 56.5398288,42.4684211 56.5398288,43.3657895 L56.5398288,45.2263158 C56.5398288,46.1263158 57.0204082,46.5815789 57.9855168,46.5815789 C58.9466754,46.5815789 59.4298881,46.1263158 59.4298881,45.2263158 L59.4298881,43.3657895 C59.4298881,42.4684211 58.9466754,42.0105263 57.9855168,42.0105263 L57.9855168,42.0105263 Z M57.9855168,47.5052632 C56.1856485,47.5052632 55.475971,46.4815789 55.475971,45.1894737 L55.475971,43.4026316 C55.475971,42.1144737 56.1856485,41.0868421 57.9855168,41.0868421 C59.7840685,41.0868421 60.4924292,42.1144737 60.4924292,43.4026316 L60.4924292,45.1894737 C60.4924292,46.4815789 59.7840685,47.5052632 57.9855168,47.5052632 L57.9855168,47.5052632 Z M65.9289006,47.3815789 L65.9289006,42.6710526 C65.9289006,42.2657895 65.7261356,42.0973684 65.3324556,42.0973684 C64.8768927,42.0973684 63.9262673,42.3776316 63.2679394,42.7210526 L63.2679394,47.3815789 L62.2040816,47.3815789 L62.2040816,41.2144737 L63.0651745,41.2144737 L63.1678736,41.7460526 C63.8499013,41.4157895 64.9150757,41.0868421 65.6497696,41.0868421 C66.6372614,41.0868421 66.9927584,41.7078947 66.9927584,42.6565789 L66.9927584,47.3815789 L65.9289006,47.3815789 L65.9289006,47.3815789 Z M72.1737986,47.2776316 C71.7919684,47.4184211 71.3377222,47.5052632 70.8821593,47.5052632 C69.843318,47.5052632 69.3482554,47.1263158 69.3482554,46.1013158 L69.3482554,42.0973684 L68.2593812,42.0973684 L68.2593812,41.2144737 L69.3482554,41.2144737 L69.3482554,39.6960526 L70.4121132,39.5421053 L70.4121132,41.2144737 L72.160632,41.2144737 L72.0724161,42.0973684 L70.4121132,42.0973684 L70.4121132,45.925 C70.4121132,46.3815789 70.4753127,46.6065789 71.0467413,46.6065789 C71.3377222,46.6065789 71.6418697,46.5578947 72.034233,46.4565789 L72.1737986,47.2776316 L72.1737986,47.2776316 Z M78.6096116,47.3815789 L77.1138907,42.1513158 L75.6208032,47.3815789 L74.2514812,47.3815789 L72.9335089,41.2144737 L73.9473338,41.2144737 L74.9730086,46.3302632 L76.4687294,41.2144737 L77.7616853,41.2144737 L79.2547729,46.3302632 L80.283081,41.2144737 L81.2955892,41.2144737 L79.9776169,47.3815789 L78.6096116,47.3815789 L78.6096116,47.3815789 Z M82.5371955,41.2144737 L83.6010533,41.2144737 L83.6010533,47.3815789 L82.5371955,47.3815789 L82.5371955,41.2144737 L82.5371955,41.2144737 Z M82.5371955,38.6921053 L83.6010533,38.6921053 L83.6010533,40.2263158 L82.5371955,40.2263158 L82.5371955,38.6921053 L82.5371955,38.6921053 Z M90.3660303,41.2144737 L88.1619487,44.2644737 L90.4674128,47.3815789 L89.2139566,47.3815789 L86.9585253,44.2644737 L89.1375905,41.2144737 L90.3660303,41.2144737 L90.3660303,41.2144737 Z M85.6273864,47.3815789 L85.6273864,38.6921053 L86.6925609,38.5407895 L86.6925609,47.3815789 L85.6273864,47.3815789 L85.6273864,47.3815789 Z M96.4990125,41.2144737 L94.2936142,44.2644737 L96.5990783,47.3815789 L95.3456221,47.3815789 L93.0901909,44.2644737 L95.2679394,41.2144737 L96.4990125,41.2144737 L96.4990125,41.2144737 Z M91.759052,47.3815789 L91.759052,38.6921053 L92.8242265,38.5407895 L92.8242265,47.3815789 L91.759052,47.3815789 L91.759052,47.3815789 Z M98.5371955,43.8223684 L101.186307,43.8223684 L101.186307,43.3157895 C101.186307,42.4539474 100.892693,41.9723684 99.8920342,41.9723684 C98.8913759,41.9723684 98.5371955,42.4539474 98.5371955,43.3157895 L98.5371955,43.8223684 L98.5371955,43.8223684 Z M100.0079,46.5947368 C100.616195,46.5947368 101.286373,46.4815789 101.959184,46.3052632 L102.096116,47.1513158 C101.515471,47.3684211 100.692561,47.5052632 99.919684,47.5052632 C98.0947992,47.5052632 97.4720211,46.6328947 97.4720211,45.2394737 L97.4720211,43.3907895 C97.4720211,42.1144737 98.0566162,41.0868421 99.8920342,41.0868421 C101.718236,41.0868421 102.211982,42.1381579 102.211982,43.4157895 L102.211982,44.7078947 L98.5371955,44.7078947 L98.5371955,45.2263158 C98.5371955,46.2013158 98.8044766,46.5947368 100.0079,46.5947368 L100.0079,46.5947368 Z M103.882818,47.3815789 L103.882818,38.6921053 L104.947992,38.5407895 L104.947992,47.3815789 L103.882818,47.3815789 L103.882818,47.3815789 Z M106.974325,41.2144737 L108.0395,41.2144737 L108.0395,47.3815789 L106.974325,47.3815789 L106.974325,41.2144737 L106.974325,41.2144737 Z M106.974325,38.6921053 L108.0395,38.6921053 L108.0395,40.2263158 L106.974325,40.2263158 L106.974325,38.6921053 L106.974325,38.6921053 Z M113.791968,47.3815789 L113.791968,42.6710526 C113.791968,42.2657895 113.589203,42.0973684 113.195523,42.0973684 C112.738644,42.0973684 111.788018,42.3776316 111.128374,42.7210526 L111.128374,47.3815789 L110.065833,47.3815789 L110.065833,41.2144737 L110.928242,41.2144737 L111.028308,41.7460526 C111.712969,41.4157895 112.776827,41.0868421 113.511521,41.0868421 C114.501646,41.0868421 114.85451,41.7078947 114.85451,42.6565789 L114.85451,47.3815789 L113.791968,47.3815789 L113.791968,47.3815789 Z M118.782093,41.9605263 C117.756419,41.9605263 117.375905,42.3013158 117.375905,43.2144737 L117.375905,43.4789474 C117.375905,44.4157895 117.768269,44.7078947 118.782093,44.7078947 C119.795918,44.7078947 120.188282,44.2907895 120.188282,43.4789474 L120.188282,43.2144737 C120.188282,42.3144737 119.807768,41.9605263 118.782093,41.9605263 L118.782093,41.9605263 Z M121.595787,41.8342105 L120.861093,41.9723684 C121.088874,42.2907895 121.18894,42.7210526 121.202107,43.2013158 L121.202107,43.4789474 C121.202107,44.8092105 120.392363,45.5828947 118.782093,45.5828947 C118.554312,45.5828947 118.339697,45.5697368 118.148782,45.5434211 C117.931534,45.7197368 117.703752,45.9368421 117.703752,46.2013158 C117.703752,46.4434211 117.831468,46.5302632 118.110599,46.5578947 C118.757077,46.6210526 119.086241,46.6578947 119.859118,46.7342105 C120.974325,46.8486842 121.403555,47.2776316 121.403555,48.2144737 C121.403555,49.5565789 120.937459,50 118.705727,50 C118.135616,50 117.159974,49.9 116.462146,49.7105263 L116.614878,48.8736842 C117.262673,49.025 118.05925,49.1263158 118.680711,49.1263158 C120.251481,49.1263158 120.404213,48.9118421 120.404213,48.2684211 C120.404213,47.7447368 120.214615,47.6578947 119.491771,47.5960526 C118.805793,47.5315789 118.579329,47.5052632 117.857801,47.4447368 C116.944042,47.3684211 116.654378,46.8855263 116.654378,46.3171053 C116.654378,45.8605263 116.907176,45.4802632 117.23634,45.2263158 C116.654378,44.8960526 116.375247,44.2907895 116.375247,43.4789474 L116.375247,43.2013158 C116.375247,41.8592105 117.020408,41.0868421 118.782093,41.0868421 C119.098091,41.0868421 119.528637,41.1263158 119.820935,41.2144737 L121.595787,41.2144737 L121.595787,41.8342105 L121.595787,41.8342105 Z" id="Fill-14" fill="#9DA5A8"></path>
                </g>
            </g>
        </g>
    </g>
</svg>