<?xml version="1.0" encoding="UTF-8" standalone="no"?>
<svg width="140px" height="58px" viewBox="0 0 140 58" version="1.1" xmlns="http://www.w3.org/2000/svg" xmlns:xlink="http://www.w3.org/1999/xlink" xmlns:sketch="http://www.bohemiancoding.com/sketch/ns">
    <!-- Generator: Sketch 3.3.2 (12043) - http://www.bohemiancoding.com/sketch -->
    <title>logo-kleur</title>
    <desc>Created with Sketch.</desc>
    <defs></defs>
    <g id="Ludens---Desktop" stroke="none" stroke-width="1" fill="none" fill-rule="evenodd" sketch:type="MSPage">
        <g id="00.-homepage" sketch:type="MSArtboardGroup" transform="translate(-120.000000, -16.000000)">
            <g id="menu" sketch:type="MSLayerGroup">
                <g id="logo-kleur" transform="translate(120.000000, 16.000000)" sketch:type="MSShapeGroup">
                    <path d="M51.4995845,9.78731665 C50.3286243,9.78731665 49.3782579,10.7415876 49.3782579,11.9117774 L49.3782579,26.7029767 C49.3782579,29.0010785 48.6318652,30.100302 47.0318048,30.100302 C45.4347662,30.100302 44.6808189,29.0010785 44.6808189,26.7029767 L44.6808189,11.9374461 C44.6808189,11.9283865 44.6838407,11.9223469 44.6838407,11.9117774 C44.6838407,10.7415876 43.7349853,9.78731665 42.5579814,9.78731665 C41.3855103,9.78731665 40.4351439,10.7415876 40.4351439,11.9117774 L40.4351439,26.9521139 C40.4351439,31.3943054 42.7302259,33.9400345 47.0318048,33.9400345 C51.3303619,33.9400345 53.6269547,31.3943054 53.6269547,26.9521139 L53.6269547,11.9117774 C53.6269547,10.7415876 52.6765884,9.78731665 51.4995845,9.78731665 Z M94.7979149,9.74503883 C90.496336,9.74503883 88.1982322,12.2922778 88.1982322,16.7344694 L88.1982322,31.7732959 C88.1982322,32.9465056 89.1516205,33.8947368 90.3271134,33.8947368 C91.4980736,33.8947368 92.4499509,32.9465056 92.4499509,31.7732959 L92.4499509,16.9836066 C92.4499509,14.6900345 93.1993654,13.590811 94.7979149,13.590811 C96.3979754,13.590811 97.145879,14.6900345 97.145879,16.9836066 L97.145879,31.7264884 C97.145879,31.7400777 97.145879,31.7264884 97.145879,31.7400777 C97.145879,32.9147972 98.0962454,33.8947368 99.2687165,33.8947368 C100.441188,33.8947368 101.391554,32.9465056 101.391554,31.7732959 L101.391554,16.7344694 C101.391554,12.2922778 99.0934502,9.74503883 94.7979149,9.74503883 Z M39.1856161,31.8940897 C39.1856161,30.7903365 38.2926645,29.8979724 37.182141,29.8979724 C37.1609881,29.8979724 37.1413462,29.9009922 37.1186825,29.9009922 L34.8115132,29.9009922 C33.0135227,29.9009922 32.1643877,28.6507765 32.1643877,26.600302 L32.1643877,5.50819672 C32.1628768,4.32290768 31.2004231,3.35957722 30.0113319,3.35957722 C28.8267734,3.35957722 27.8643197,4.32290768 27.8643197,5.50819672 L27.8643197,26.8056514 C27.8643197,31.0998706 29.7620307,33.8947368 34.7117927,33.8947368 L37.1851628,33.8947368 C38.2941754,33.8947368 39.1856161,32.997843 39.1856161,31.8940897 Z M76.369268,14.6175582 C76.369268,12.3209664 77.4178439,11.2217429 79.0118607,11.2217429 C80.614943,11.2217429 81.6166805,12.3209664 81.6166805,14.6175582 L81.6166805,17.0651424 L76.369268,19.8116911 L76.369268,14.6175582 Z M85.8638664,19.5066868 L85.8638664,14.3654012 C85.8638664,9.92320966 83.3164614,7.37748059 79.0118607,7.37748059 C74.7163255,7.37748059 72.122082,9.92320966 72.122082,14.3654012 L72.122082,26.9007765 C72.122082,31.3505177 74.7163255,33.8947368 79.0118607,33.8947368 C83.3164614,33.8947368 85.8638664,31.3505177 85.8638664,26.9007765 L85.8638664,25.2051337 L85.8457354,25.2051337 C85.8502682,25.1522865 85.8638664,25.1009491 85.8638664,25.0465919 C85.8638664,23.877912 84.9135,22.9281708 83.7364962,22.9281708 C82.565536,22.9281708 81.6166805,23.877912 81.6166805,25.0465919 C81.6166805,25.1009491 81.6272569,25.1522865 81.6317897,25.2051337 L81.6166805,25.2051337 L81.6166805,26.6531493 C81.6166805,28.9482312 80.614943,30.0489646 79.0118607,30.0489646 C77.4178439,30.0489646 76.369268,28.9482312 76.369268,26.6531493 L76.369268,24.1044003 L85.8638664,19.5066868 Z M113.728186,20.4594478 L109.780162,17.3142796 C108.432424,16.2633736 108.130241,15.6171268 108.130241,14.2174288 C108.130241,12.3209664 108.879656,11.1719154 110.376974,11.1719154 C111.928685,11.1719154 112.678099,12.4689387 112.678099,14.6175582 L112.678099,16.1184211 L112.681121,16.1184211 C112.681121,16.1259707 112.678099,16.1350302 112.678099,16.1425798 C112.678099,17.3142796 113.631487,18.2655306 114.799426,18.2655306 C115.973408,18.2655306 116.920752,17.3142796 116.920752,16.1425798 C116.920752,16.1350302 116.919242,16.1259707 116.919242,16.1184211 L116.926796,16.1184211 L116.926796,14.3654012 C116.926796,9.92320966 114.578832,7.37748059 110.376974,7.37748059 C106.179648,7.37748059 103.935937,9.92320966 103.935937,14.2174288 C103.935937,17.4124245 105.233814,18.9117774 107.480547,20.7100949 L111.433104,23.8552632 C112.780842,24.907679 113.076981,25.6535807 113.076981,27.0517688 C113.076981,29.0977135 111.928685,30.100302 110.376974,30.100302 C108.781446,30.100302 107.731359,28.9482312 107.731359,26.6531493 L107.731359,25.2051337 L107.728337,25.2051337 C107.729848,25.1960742 107.731359,25.1885246 107.731359,25.1794651 C107.731359,24.0107852 106.780993,23.0595341 105.603989,23.0595341 C104.433029,23.0595341 103.481151,24.0107852 103.481151,25.1794651 C103.481151,25.1885246 103.482662,25.1960742 103.482662,25.2051337 L103.481151,25.2051337 L103.481151,26.9007765 C103.481151,31.3505177 106.08446,33.8947368 110.376974,33.8947368 C114.578832,33.8947368 117.275818,31.3505177 117.275818,27.0517688 C117.275818,23.8552632 115.977941,22.2592752 113.728186,20.4594478 Z M65.5072902,26.6531493 C65.5072902,28.9482312 64.4541815,29.9976273 62.8586538,29.9976273 C61.2585933,29.9976273 60.2100174,28.9482312 60.2100174,26.6531493 L60.2100174,14.6175582 C60.2100174,12.3209664 61.2585933,11.2217429 62.8586538,11.2217429 C64.4541815,11.2217429 65.5072902,12.3209664 65.5072902,14.6175582 L65.5072902,26.6531493 Z M69.7574979,2.88244176 C69.7574979,1.71074202 68.8056206,0.761000863 67.6301277,0.761000863 C66.4561457,0.761000863 65.5072902,1.71074202 65.5072902,2.88244176 L65.5072902,9.37359793 C65.0570371,8.22454702 63.3557453,7.37748059 61.9082874,7.37748059 C57.8620533,7.37748059 55.9613205,9.87338223 55.9613205,14.3654012 L55.9613205,26.9007765 C55.9613205,31.3505177 58.5616076,33.8947368 62.8586538,33.8947368 C67.1556999,33.8947368 69.7574979,31.3505177 69.7574979,26.9007765 L69.7574979,2.88244176 L69.7574979,2.88244176 Z" id="Fill-3" fill="#FFFFFF"></path>
                    <g id="things" transform="translate(0.000000, 12.079379)" fill="#D91E43">
                        <path d="M9.23320994,8.96138913 C8.04714059,8.96138913 7.08166503,9.9186799 7.08166503,11.1100086 C7.08166503,12.2937877 8.04714059,13.2540984 9.23320994,13.2540984 L23.57785,13.2540984 L23.57785,8.96138913 L9.23320994,8.96138913" id="Fill-10"></path>
                        <path d="M23.2590466,17.5452977 L2.150034,17.5452977 C0.965475561,17.5452977 0,18.5056083 0,19.6939172 C0,20.8792062 0.965475561,21.8410267 2.150034,21.8410267 L23.4630203,21.8410267 C23.5038151,21.8410267 23.5385661,21.8349871 23.57785,21.8349871 L23.57785,17.5241588 C23.4720858,17.5317084 23.3708544,17.5452977 23.2590466,17.5452977" id="Fill-12"></path>
                        <path d="M16.6246128,0.383520276 C15.4385435,0.383520276 14.4745788,1.34685073 14.4745788,2.53515962 C14.4745788,3.71893874 15.4385435,4.68075928 16.6246128,4.68075928 L23.6367757,4.68075928 L23.6367757,0.383520276 L16.6246128,0.383520276" id="Fill-9"></path>
                    </g>
                    <path d="M31.5615321,54.2530198 C31.1263882,54.4145815 30.6021002,54.5142364 30.0793231,54.5142364 C28.8872101,54.5142364 28.3191055,54.0793788 28.3191055,52.9031493 L28.3191055,48.3084556 L27.0680668,48.3084556 L27.0680668,47.2952977 L28.3191055,47.2952977 L28.3191055,45.5528473 L29.539926,45.3761864 L29.539926,47.2952977 L31.5464229,47.2952977 L31.4451915,48.3084556 L29.539926,48.3084556 L29.539926,52.7008197 C29.539926,53.2247627 29.6139609,53.4829594 30.2666767,53.4829594 C30.6021002,53.4829594 30.9511219,53.4270923 31.4013749,53.3108283 L31.5615321,54.2530198 L31.5615321,54.2530198 Z M37.0280275,51.5064711 L35.2239934,51.5064711 C34.4685352,51.5064711 34.1920375,51.742019 34.1920375,52.4516825 C34.1920375,53.1779551 34.3234872,53.4693701 35.1952859,53.4693701 C35.8056962,53.4693701 36.4901413,53.238352 37.0280275,52.88805 L37.0280275,51.5064711 L37.0280275,51.5064711 Z M38.2488479,54.3723037 L37.2153811,54.3723037 L37.1443681,53.8468507 C36.5188487,54.2817084 35.7044648,54.5142364 34.8462643,54.5142364 C33.5242124,54.5142364 32.971217,53.7290768 32.971217,52.4818809 C32.971217,51.0157463 33.7115661,50.4918033 35.1378711,50.4918033 L37.0280275,50.4918033 L37.0280275,49.3850302 C37.0280275,48.5017256 36.6351892,48.1967213 35.4868928,48.1967213 C34.8039586,48.1967213 33.9170507,48.3084556 33.3625444,48.4277394 L33.2326056,47.4538395 C33.9019415,47.2786885 34.8039586,47.1488352 35.5579059,47.1488352 C37.5810229,47.1488352 38.2488479,47.9324849 38.2488479,49.4454271 L38.2488479,54.3723037 L38.2488479,54.3723037 Z M40.4003928,54.3723037 L40.4003928,44.4007765 L41.6212133,44.2271355 L41.6212133,54.3723037 L40.4003928,54.3723037 L40.4003928,54.3723037 Z M44.806225,50.2879638 L47.8446778,50.2879638 L47.8446778,49.7066437 C47.8446778,48.7176445 47.5107653,48.1650129 46.3609579,48.1650129 C45.2126615,48.1650129 44.806225,48.7176445 44.806225,49.7066437 L44.806225,50.2879638 L44.806225,50.2879638 Z M46.4924076,53.4693701 C47.190451,53.4693701 47.9610184,53.3395168 48.7315857,53.1371872 L48.8902319,54.1080673 C48.2224069,54.3572045 47.2765732,54.5142364 46.3896653,54.5142364 C44.2970462,54.5142364 43.5838936,53.5131579 43.5838936,51.9141501 L43.5838936,49.7927092 C43.5838936,48.3280846 44.2517187,47.1488352 46.3609579,47.1488352 C48.455088,47.1488352 49.0216816,48.3552632 49.0216816,49.8213978 L49.0216816,51.3041415 L44.806225,51.3041415 L44.806225,51.8990509 C44.806225,53.0179034 45.1114301,53.4693701 46.4924076,53.4693701 L46.4924076,53.4693701 Z M55.2149279,54.3723037 L55.2149279,48.9667817 C55.2149279,48.5017256 54.9822467,48.3084556 54.5319937,48.3084556 C54.0092166,48.3084556 52.918335,48.630069 52.1613659,49.0241588 L52.1613659,54.3723037 L50.9390345,54.3723037 L50.9390345,47.2952977 L51.9286847,47.2952977 L52.0465362,47.9053063 C52.8291909,47.5263158 54.0515222,47.1488352 54.8946136,47.1488352 C56.0278009,47.1488352 56.4372592,47.8615186 56.4372592,48.9501726 L56.4372592,54.3723037 L55.2149279,54.3723037 L55.2149279,54.3723037 Z M62.3827151,54.2530198 C61.9460603,54.4145815 61.4217723,54.5142364 60.8989952,54.5142364 C59.7068822,54.5142364 59.1402886,54.0793788 59.1402886,52.9031493 L59.1402886,48.3084556 L57.8877389,48.3084556 L57.8877389,47.2952977 L59.1402886,47.2952977 L59.1402886,45.5528473 L60.361109,45.3761864 L60.361109,47.2952977 L62.367606,47.2952977 L62.2663746,48.3084556 L60.361109,48.3084556 L60.361109,52.7008197 C60.361109,53.2247627 60.433633,53.4829594 61.0878598,53.4829594 C61.4217723,53.4829594 61.7723049,53.4270923 62.222558,53.3108283 L62.3827151,54.2530198 L62.3827151,54.2530198 Z M66.540757,48.2088007 C65.4332553,48.2088007 64.8817708,48.7342537 64.8817708,49.7640207 L64.8817708,51.8990509 C64.8817708,52.9318378 65.4332553,53.4542709 66.540757,53.4542709 C67.6437259,53.4542709 68.1982322,52.9318378 68.1982322,51.8990509 L68.1982322,49.7640207 C68.1982322,48.7342537 67.6437259,48.2088007 66.540757,48.2088007 L66.540757,48.2088007 Z M66.540757,54.5142364 C64.4753343,54.5142364 63.6609504,53.3395168 63.6609504,51.8567731 L63.6609504,49.8062985 C63.6609504,48.3280846 64.4753343,47.1488352 66.540757,47.1488352 C68.6046687,47.1488352 69.4175417,48.3280846 69.4175417,49.8062985 L69.4175417,51.8567731 C69.4175417,53.3395168 68.6046687,54.5142364 66.540757,54.5142364 L66.540757,54.5142364 Z M75.6561154,54.3723037 L75.6561154,48.9667817 C75.6561154,48.5017256 75.4234343,48.3084556 74.9716703,48.3084556 C74.4488933,48.3084556 73.3580116,48.630069 72.6025534,49.0241588 L72.6025534,54.3723037 L71.381733,54.3723037 L71.381733,47.2952977 L72.3698723,47.2952977 L72.4877238,47.9053063 C73.2703785,47.5263158 74.4927098,47.1488352 75.3358012,47.1488352 C76.4689884,47.1488352 76.8769359,47.8615186 76.8769359,48.9501726 L76.8769359,54.3723037 L75.6561154,54.3723037 L75.6561154,54.3723037 Z M82.8223918,54.2530198 C82.384226,54.4145815 81.8629599,54.5142364 81.3401828,54.5142364 C80.1480698,54.5142364 79.5799652,54.0793788 79.5799652,52.9031493 L79.5799652,48.3084556 L78.3304374,48.3084556 L78.3304374,47.2952977 L79.5799652,47.2952977 L79.5799652,45.5528473 L80.8007857,45.3761864 L80.8007857,47.2952977 L82.8072826,47.2952977 L82.7060512,48.3084556 L80.8007857,48.3084556 L80.8007857,52.7008197 C80.8007857,53.2247627 80.8733097,53.4829594 81.5290474,53.4829594 C81.8629599,53.4829594 82.2119816,53.4270923 82.6622346,53.3108283 L82.8223918,54.2530198 L82.8223918,54.2530198 Z M90.207751,54.3723037 L88.49135,48.3703624 L86.7779708,54.3723037 L85.2066178,54.3723037 L83.6941905,47.2952977 L84.8575961,47.2952977 L86.0346,53.1658758 L87.751001,47.2952977 L89.2347209,47.2952977 L90.9481,53.1658758 L92.1281257,47.2952977 L93.2900204,47.2952977 L91.7775931,54.3723037 L90.207751,54.3723037 L90.207751,54.3723037 Z M94.7148145,47.2952977 L95.935635,47.2952977 L95.935635,54.3723037 L94.7148145,54.3723037 L94.7148145,47.2952977 L94.7148145,47.2952977 Z M94.7148145,44.4007765 L95.935635,44.4007765 L95.935635,46.161346 L94.7148145,46.161346 L94.7148145,44.4007765 L94.7148145,44.4007765 Z M103.698723,47.2952977 L101.169449,50.7952977 L103.815064,54.3723037 L102.376671,54.3723037 L99.7884717,50.7952977 L102.289038,47.2952977 L103.698723,47.2952977 L103.698723,47.2952977 Z M98.2609353,54.3723037 L98.2609353,44.4007765 L99.4832666,44.2271355 L99.4832666,54.3723037 L98.2609353,54.3723037 L98.2609353,54.3723037 Z M110.736572,47.2952977 L108.205787,50.7952977 L110.851401,54.3723037 L109.413009,54.3723037 L106.824809,50.7952977 L109.323865,47.2952977 L110.736572,47.2952977 L110.736572,47.2952977 Z M105.297273,54.3723037 L105.297273,44.4007765 L106.519604,44.2271355 L106.519604,54.3723037 L105.297273,54.3723037 L105.297273,54.3723037 Z M113.07547,50.2879638 L116.115434,50.2879638 L116.115434,49.7066437 C116.115434,48.7176445 115.7785,48.1650129 114.630203,48.1650129 C113.481907,48.1650129 113.07547,48.7176445 113.07547,49.7066437 L113.07547,50.2879638 L113.07547,50.2879638 Z M114.763164,53.4693701 C115.461207,53.4693701 116.230264,53.3395168 117.002342,53.1371872 L117.159477,54.1080673 C116.493163,54.3572045 115.54884,54.5142364 114.661932,54.5142364 C112.567802,54.5142364 111.853139,53.5131579 111.853139,51.9141501 L111.853139,49.7927092 C111.853139,48.3280846 112.523986,47.1488352 114.630203,47.1488352 C116.725844,47.1488352 117.292438,48.3552632 117.292438,49.8213978 L117.292438,51.3041415 L113.07547,51.3041415 L113.07547,51.8990509 C113.07547,53.0179034 113.382186,53.4693701 114.763164,53.4693701 L114.763164,53.4693701 Z M119.209791,54.3723037 L119.209791,44.4007765 L120.432122,44.2271355 L120.432122,54.3723037 L119.209791,54.3723037 L119.209791,54.3723037 Z M122.757422,47.2952977 L123.979754,47.2952977 L123.979754,54.3723037 L122.757422,54.3723037 L122.757422,47.2952977 L122.757422,47.2952977 Z M122.757422,44.4007765 L123.979754,44.4007765 L123.979754,46.161346 L122.757422,46.161346 L122.757422,44.4007765 L122.757422,44.4007765 Z M130.580947,54.3723037 L130.580947,48.9667817 C130.580947,48.5017256 130.348266,48.3084556 129.896502,48.3084556 C129.372214,48.3084556 128.281333,48.630069 127.524364,49.0241588 L127.524364,54.3723037 L126.305054,54.3723037 L126.305054,47.2952977 L127.294704,47.2952977 L127.409534,47.9053063 C128.19521,47.5263158 129.416031,47.1488352 130.259122,47.1488352 C131.395331,47.1488352 131.800257,47.8615186 131.800257,48.9501726 L131.800257,54.3723037 L130.580947,54.3723037 L130.580947,54.3723037 Z M136.30732,48.1514236 C135.130317,48.1514236 134.693662,48.5424935 134.693662,49.5903796 L134.693662,49.893874 C134.693662,50.9689387 135.143915,51.3041415 136.30732,51.3041415 C137.470726,51.3041415 137.920979,50.8254961 137.920979,49.893874 L137.920979,49.5903796 C137.920979,48.5575928 137.484324,48.1514236 136.30732,48.1514236 L136.30732,48.1514236 Z M139.536149,48.0064711 L138.693057,48.1650129 C138.954446,48.5304142 139.069276,49.0241588 139.084385,49.5752804 L139.084385,49.893874 C139.084385,51.4204055 138.155171,52.3082399 136.30732,52.3082399 C136.045932,52.3082399 135.799652,52.2931406 135.58057,52.2629422 C135.331268,52.4652718 135.06988,52.714409 135.06988,53.0179034 C135.06988,53.2957291 135.216439,53.395384 135.536753,53.4270923 C136.278613,53.4995686 136.656342,53.5418464 137.54325,53.6294219 C138.822996,53.7607852 139.315555,54.2530198 139.315555,55.3280846 C139.315555,56.8682053 138.78069,57.3770492 136.219687,57.3770492 C135.56546,57.3770492 134.445871,57.2622951 133.645086,57.0448663 L133.820352,56.0845557 C134.563723,56.2581967 135.477827,56.3744607 136.19098,56.3744607 C137.993503,56.3744607 138.168769,56.1283434 138.168769,55.3899914 C138.168769,54.7890423 137.951197,54.6893874 137.121704,54.6184211 C136.334517,54.5444349 136.074639,54.5142364 135.246657,54.44478 C134.198081,54.3572045 133.86568,53.803063 133.86568,53.1507765 C133.86568,52.6268335 134.155775,52.1904659 134.533505,51.8990509 C133.86568,51.5200604 133.545365,50.8254961 133.545365,49.893874 L133.545365,49.5752804 C133.545365,48.0351596 134.285714,47.1488352 136.30732,47.1488352 C136.66994,47.1488352 137.16401,47.1941329 137.499433,47.2952977 L139.536149,47.2952977 L139.536149,48.0064711 L139.536149,48.0064711 Z" id="Fill-14" fill="#E1E1E1"></path>
                </g>
            </g>
        </g>
    </g>
</svg>