<?xml version="1.0" encoding="UTF-8" standalone="no"?>
<svg width="9px" height="14px" viewBox="0 0 9 14" version="1.1" xmlns="http://www.w3.org/2000/svg" xmlns:xlink="http://www.w3.org/1999/xlink" xmlns:sketch="http://www.bohemiancoding.com/sketch/ns">
    <!-- Generator: Sketch 3.3.3 (12081) - http://www.bohemiancoding.com/sketch -->
    <title>icon-pin</title>
    <desc>Created with Sketch.</desc>
    <defs></defs>
    <g id="Ludens---Mobiel" stroke="none" stroke-width="1" fill="none" fill-rule="evenodd" sketch:type="MSPage">
        <g id="00-mobiel-homepage" sketch:type="MSArtboardGroup" transform="translate(-126.000000, -305.000000)" fill="#000000">
            <g id="mob-menu" sketch:type="MSLayerGroup" transform="translate(48.000000, 287.000000)">
                <g id="location---google-maps-link" transform="translate(55.000000, 0.000000)" sketch:type="MSShapeGroup">
                    <path d="M25.6971947,21.7714521 C25.6971947,21.3267327 25.8531353,20.9455446 26.1765677,20.6336634 C26.4942244,20.3160066 26.869637,20.1542904 27.3143564,20.1542904 C27.7533003,20.1542904 28.1344884,20.3160066 28.4579208,20.6336634 C28.7755776,20.9455446 28.9372937,21.3267327 28.9372937,21.7714521 C28.9372937,22.210396 28.7755776,22.5915842 28.4579208,22.9092409 C28.1344884,23.2326733 27.7533003,23.3828383 27.3143564,23.3828383 C26.869637,23.3828383 26.4942244,23.2326733 26.1765677,22.9092409 C25.8531353,22.5915842 25.6971947,22.210396 25.6971947,21.7714521 L25.6971947,21.7714521 Z M24.2706271,19.1782178 C23.4216172,19.9752475 23,20.9455446 23,22.1006601 C23,22.94967 23.4851485,24.4051155 24.4727723,26.4785479 C25.4430693,28.5577558 26.3960396,30.3943894 27.3143564,32 C27.8283828,31.0759076 28.3712871,30.0651815 28.9488449,28.9620462 C29.5148515,27.8589109 30.1039604,26.5882838 30.7046205,25.1559406 C31.3110561,23.7178218 31.6171617,22.7013201 31.6171617,22.1006601 C31.6171617,20.9455446 31.1839934,19.9752475 30.3349835,19.1782178 C29.4859736,18.3927393 28.4752475,18 27.3143564,18 C26.1419142,18 25.119637,18.3927393 24.2706271,19.1782178 L24.2706271,19.1782178 Z" id="icon-pin"></path>
                </g>
            </g>
        </g>
    </g>
</svg>