<?xml version="1.0" encoding="UTF-8" standalone="no"?>
<svg width="16px" height="9px" viewBox="0 0 16 9" version="1.1" xmlns="http://www.w3.org/2000/svg" xmlns:xlink="http://www.w3.org/1999/xlink" xmlns:sketch="http://www.bohemiancoding.com/sketch/ns">
    <!-- Generator: Sketch 3.3.3 (12081) - http://www.bohemiancoding.com/sketch -->
    <title>icon-phone</title>
    <desc>Created with Sketch.</desc>
    <defs></defs>
    <g id="Ludens---Mobiel" stroke="none" stroke-width="1" fill="none" fill-rule="evenodd" sketch:type="MSPage">
        <g id="00-mobiel-homepage" sketch:type="MSArtboardGroup" transform="translate(-67.000000, -307.000000)" fill="#000000">
            <g id="mob-menu" sketch:type="MSLayerGroup" transform="translate(48.000000, 287.000000)">
                <g id="contact---tel-link" sketch:type="MSShapeGroup">
                    <path d="M28.596,25.996 C28.596,26.867 27.876,27.53 26.997,27.53 C26.117,27.53 25.398,26.867 25.398,25.996 C25.398,25.124 26.117,24.411 26.997,24.411 C27.876,24.411 28.596,25.124 28.596,25.996 L28.596,25.996 Z M32.867,28.309 C32.867,27.92 30.66,23.68 30.244,22.85 C29.7,22.805 29.14,22.775 28.596,22.745 L28.037,23.68 L25.925,23.68 L25.381,22.745 C24.838,22.775 24.278,22.805 23.734,22.85 C23.318,23.67 21.127,27.909 21.127,28.309 C21.127,28.558 21.319,28.58 21.623,28.624 C22.167,28.699 22.727,28.732 23.27,28.786 C24.534,28.903 25.797,29 27.061,29 C28.356,29 29.652,28.889 30.931,28.775 C31.411,28.732 31.891,28.699 32.371,28.624 C32.659,28.569 32.867,28.548 32.867,28.309 L32.867,28.309 Z M35,23.253 C34.722,22.431 34.29,21.581 33.682,21.011 C31.603,20.278 29.236,20 26.981,20 C24.646,20 22.439,20.354 20.295,21.112 C19.688,21.67 19.272,22.506 19,23.297 L19.288,23.799 L21.671,23.268 L22.647,21.715 C24.07,21.476 25.525,21.461 26.981,21.461 C28.436,21.461 29.892,21.476 31.331,21.715 L32.323,23.268 C33.138,23.432 33.922,23.621 34.738,23.73 L35,23.253 L35,23.253 Z" id="icon-phone"></path>
                </g>
            </g>
        </g>
    </g>
</svg>