<?xml version="1.0" encoding="UTF-8" standalone="no"?>
<svg width="17px" height="14px" viewBox="0 0 17 14" version="1.1" xmlns="http://www.w3.org/2000/svg" xmlns:xlink="http://www.w3.org/1999/xlink" xmlns:sketch="http://www.bohemiancoding.com/sketch/ns">
    <!-- Generator: Sketch 3.3.3 (12081) - http://www.bohemiancoding.com/sketch -->
    <title>twitter-5-icon</title>
    <desc>Created with Sketch.</desc>
    <defs></defs>
    <g id="Ludens---Mobiel" stroke="none" stroke-width="1" fill="none" fill-rule="evenodd" sketch:type="MSPage">
        <g id="00-mobiel-homepage" sketch:type="MSArtboardGroup" transform="translate(-285.000000, -305.000000)" fill="#000000">
            <g id="mob-menu" sketch:type="MSLayerGroup" transform="translate(48.000000, 287.000000)">
                <g id="twitter" transform="translate(218.000000, 1.000000)" sketch:type="MSShapeGroup">
                    <path d="M35.2792233,18.5660583 C34.680233,18.8316893 34.0365825,19.0112621 33.3610097,19.0919612 C34.0504078,18.6786019 34.5801165,18.0241553 34.8294369,17.2441942 C34.1839223,17.6269515 33.4692816,17.9048544 32.7085049,18.0546796 C32.0993398,17.4055922 31.2312233,17 30.2706796,17 C28.1148738,17 26.5300971,19.0118058 27.017165,21.1009709 C24.2415534,20.9617087 21.7804272,19.632 20.1332816,17.6114175 C19.2583301,19.112233 19.6793786,21.0762718 21.1669126,22.0703689 C20.6194175,22.0530485 20.104233,21.9027573 19.6540583,21.6525825 C19.6178641,23.1999223 20.7267573,24.6469126 22.3328155,24.9697087 C21.8627573,25.0975534 21.3478835,25.126835 20.8245437,25.0267961 C21.2495534,26.3537087 22.4831068,27.319301 23.9445437,27.3461748 C22.5403495,28.4466796 20.7718058,28.9380194 19,28.7292427 C20.4779029,29.6768155 22.2335534,30.2298252 24.1196117,30.2298252 C30.3203107,30.2298252 33.8236117,24.9923107 33.6125825,20.2949903 C34.265165,19.8240777 34.8313786,19.2358058 35.2792233,18.5660583 L35.2792233,18.5660583 Z" id="twitter-5-icon"></path>
                </g>
            </g>
        </g>
    </g>
</svg>