<?xml version="1.0" encoding="UTF-8" standalone="no"?>
<svg width="9px" height="14px" viewBox="0 0 9 14" version="1.1" xmlns="http://www.w3.org/2000/svg" xmlns:xlink="http://www.w3.org/1999/xlink" xmlns:sketch="http://www.bohemiancoding.com/sketch/ns">
    <!-- Generator: Sketch 3.3.3 (12081) - http://www.bohemiancoding.com/sketch -->
    <title>icon-pin</title>
    <desc>Created with Sketch.</desc>
    <defs></defs>
    <g id="Ludens---Mobiel" stroke="none" stroke-width="1" fill="none" fill-rule="evenodd" sketch:type="MSPage">
        <g id="00-mobiel-homepage" sketch:type="MSArtboardGroup" transform="translate(-244.000000, -17.000000)" fill="#CBCBCB">
            <g id="mob-menu" sketch:type="MSLayerGroup" transform="translate(176.000000, 0.000000)">
                <path d="M70.6971947,20.7714521 C70.6971947,20.3267327 70.8531353,19.9455446 71.1765677,19.6336634 C71.4942244,19.3160066 71.869637,19.1542904 72.3143564,19.1542904 C72.7533003,19.1542904 73.1344884,19.3160066 73.4579208,19.6336634 C73.7755776,19.9455446 73.9372937,20.3267327 73.9372937,20.7714521 C73.9372937,21.210396 73.7755776,21.5915842 73.4579208,21.9092409 C73.1344884,22.2326733 72.7533003,22.3828383 72.3143564,22.3828383 C71.869637,22.3828383 71.4942244,22.2326733 71.1765677,21.9092409 C70.8531353,21.5915842 70.6971947,21.210396 70.6971947,20.7714521 L70.6971947,20.7714521 Z M69.2706271,18.1782178 C68.4216172,18.9752475 68,19.9455446 68,21.1006601 C68,21.94967 68.4851485,23.4051155 69.4727723,25.4785479 C70.4430693,27.5577558 71.3960396,29.3943894 72.3143564,31 C72.8283828,30.0759076 73.3712871,29.0651815 73.9488449,27.9620462 C74.5148515,26.8589109 75.1039604,25.5882838 75.7046205,24.1559406 C76.3110561,22.7178218 76.6171617,21.7013201 76.6171617,21.1006601 C76.6171617,19.9455446 76.1839934,18.9752475 75.3349835,18.1782178 C74.4859736,17.3927393 73.4752475,17 72.3143564,17 C71.1419142,17 70.119637,17.3927393 69.2706271,18.1782178 L69.2706271,18.1782178 Z" id="icon-pin" sketch:type="MSShapeGroup"></path>
            </g>
        </g>
    </g>
</svg>