<?xml version="1.0" encoding="UTF-8" standalone="no"?>
<svg width="16px" height="9px" viewBox="0 0 16 9" version="1.1" xmlns="http://www.w3.org/2000/svg" xmlns:xlink="http://www.w3.org/1999/xlink" xmlns:sketch="http://www.bohemiancoding.com/sketch/ns">
    <!-- Generator: Sketch 3.3.2 (12043) - http://www.bohemiancoding.com/sketch -->
    <title>Phone Icon</title>
    <desc>Created with Sketch.</desc>
    <defs></defs>
    <g id="Ludens---Desktop" stroke="none" stroke-width="1" fill="none" fill-rule="evenodd" sketch:type="MSPage">
        <g id="00.-homepage" sketch:type="MSArtboardGroup" transform="translate(-1175.000000, -41.000000)" fill="#FFFFFF">
            <g id="menu" sketch:type="MSLayerGroup">
                <g id="tel" transform="translate(1154.000000, 28.000000)" sketch:type="MSShapeGroup">
                    <g id="Phone-Icon" transform="translate(21.000000, 13.000000)">
                        <path d="M9.596,5.996 C9.596,6.867 8.876,7.53 7.997,7.53 C7.117,7.53 6.398,6.867 6.398,5.996 C6.398,5.124 7.117,4.411 7.997,4.411 C8.876,4.411 9.596,5.124 9.596,5.996 L9.596,5.996 Z M13.867,8.309 C13.867,7.92 11.66,3.68 11.244,2.85 C10.7,2.805 10.14,2.775 9.596,2.745 L9.037,3.68 L6.925,3.68 L6.381,2.745 C5.838,2.775 5.278,2.805 4.734,2.85 C4.318,3.67 2.127,7.909 2.127,8.309 C2.127,8.558 2.319,8.58 2.623,8.624 C3.167,8.699 3.727,8.732 4.27,8.786 C5.534,8.903 6.797,9 8.061,9 C9.356,9 10.652,8.889 11.931,8.775 C12.411,8.732 12.891,8.699 13.371,8.624 C13.659,8.569 13.867,8.548 13.867,8.309 L13.867,8.309 Z M16,3.253 C15.722,2.431 15.29,1.581 14.682,1.011 C12.603,0.278 10.236,0 7.981,0 C5.646,0 3.439,0.354 1.295,1.112 C0.688,1.67 0.272,2.506 0,3.297 L0.288,3.799 L2.671,3.268 L3.647,1.715 C5.07,1.476 6.525,1.461 7.981,1.461 C9.436,1.461 10.892,1.476 12.331,1.715 L13.323,3.268 C14.138,3.432 14.922,3.621 15.738,3.73 L16,3.253 L16,3.253 Z"></path>
                    </g>
                </g>
            </g>
        </g>
    </g>
</svg>