<?xml version="1.0" encoding="UTF-8" standalone="no"?>
<svg width="17px" height="13px" viewBox="0 0 17 13" version="1.1" xmlns="http://www.w3.org/2000/svg" xmlns:xlink="http://www.w3.org/1999/xlink" xmlns:sketch="http://www.bohemiancoding.com/sketch/ns">
    <!-- Generator: Sketch 3.3.2 (12043) - http://www.bohemiancoding.com/sketch -->
    <title>Twitter Icon</title>
    <desc>Created with Sketch.</desc>
    <defs></defs>
    <g id="Ludens---Desktop" stroke="none" stroke-width="1" fill="none" fill-rule="evenodd" sketch:type="MSPage">
        <g id="04a.--blog-overview" sketch:type="MSArtboardGroup" transform="translate(-711.000000, -909.000000)" fill="#FFFFFF">
            <g id="section:-blog" sketch:type="MSLayerGroup" transform="translate(120.000000, 670.000000)">
                <g id="inspiratie" transform="translate(0.000000, 49.000000)" sketch:type="MSShapeGroup">
                    <g id="tweet" transform="translate(411.000000, 0.000000)">
                        <path d="M191.244094,191.161409 C192.047244,191.016233 192.448819,190.725881 192.582677,190.580705 C192.582677,190.435528 192.582677,190.290352 192.448819,190.290352 C192.047244,190.290352 191.645669,190.435528 191.377953,190.580705 C191.779528,190.290352 191.913386,190.145176 191.913386,190 C191.511811,190 191.110236,190.290352 190.574803,190.725881 C190.708661,190.435528 190.84252,190.290352 190.708661,190.145176 C190.440945,190.290352 190.307087,190.435528 190.173228,190.725881 C189.771654,191.161409 189.503937,191.451761 189.370079,191.88729 C188.834646,192.903523 188.433071,193.77458 188.165354,194.790812 L188.031496,194.790812 C187.76378,194.355284 187.362205,193.919756 186.826772,193.629403 C186.291339,193.193875 185.622047,192.903523 184.818898,192.467994 C184.015748,192.032466 183.212598,191.596937 182.275591,191.306585 C182.275591,192.322818 182.677165,193.193875 183.614173,193.77458 C183.346457,193.77458 182.944882,193.77458 182.677165,193.919756 C182.677165,194.790812 183.346457,195.516693 184.551181,195.807045 C184.149606,195.807045 183.748031,195.952222 183.346457,196.242574 C183.748031,197.113631 184.417323,197.403983 185.488189,197.403983 C185.354331,197.549159 185.086614,197.694335 185.086614,197.694335 C184.952756,197.839511 184.818898,198.129864 184.952756,198.420216 C185.220472,198.855744 185.488189,199.00092 186.15748,199.00092 C185.220472,200.017153 184.015748,200.597858 182.677165,200.452682 C181.874016,200.452682 180.937008,200.017153 180,199.146097 C180.937008,200.597858 182.275591,201.759267 183.88189,202.485148 C185.755906,203.065852 187.629921,203.211028 189.370079,202.630324 C191.110236,202.049619 192.716535,200.88821 193.92126,199.291273 C194.456693,198.420216 194.858268,197.549159 194.992126,196.678102 C195.929134,196.678102 196.598425,196.38775 197,195.807045 C196.732283,195.952222 196.062992,195.952222 195.125984,195.661869 C196.062992,195.516693 196.732283,195.226341 196.866142,194.645636 C196.19685,194.935989 195.527559,194.935989 194.858268,194.645636 C194.724409,193.629403 194.322835,192.758347 193.519685,192.032466 C192.850394,191.306585 192.047244,191.016233 191.244094,191.161409 Z" id="Twitter-Icon"></path>
                    </g>
                </g>
            </g>
        </g>
    </g>
</svg>