<?xml version="1.0" encoding="UTF-8" standalone="no"?>
<svg width="17px" height="14px" viewBox="0 0 17 14" version="1.1" xmlns="http://www.w3.org/2000/svg" xmlns:xlink="http://www.w3.org/1999/xlink" xmlns:sketch="http://www.bohemiancoding.com/sketch/ns">
    <!-- Generator: Sketch 3.3.2 (12043) - http://www.bohemiancoding.com/sketch -->
    <title>twitter-5-icon</title>
    <desc>Created with Sketch.</desc>
    <defs></defs>
    <g id="Ludens---Desktop" stroke="none" stroke-width="1" fill="none" fill-rule="evenodd" sketch:type="MSPage">
        <g id="01b.-over-ons-team-detail" sketch:type="MSArtboardGroup" transform="translate(-765.000000, -521.000000)" fill="#ADADAD">
            <g id="team-member" sketch:type="MSLayerGroup" transform="translate(120.000000, 190.000000)">
                <g id="content" transform="translate(412.000000, 0.000000)" sketch:type="MSShapeGroup">
                    <g id="links" transform="translate(0.000000, 320.000000)">
                        <g id="Dynamic-group" transform="translate(219.000000, 0.000000)">
                            <g id="8:14:8:14" transform="translate(14.000000, 8.000000)">
                                <path d="M16.2792233,4.56605825 C15.680233,4.83168932 15.0365825,5.01126214 14.3610097,5.09196117 C15.0504078,4.67860194 15.5801165,4.02415534 15.8294369,3.24419417 C15.1839223,3.62695146 14.4692816,3.90485437 13.7085049,4.05467961 C13.0993398,3.40559223 12.2312233,3 11.2706796,3 C9.11487379,3 7.53009709,5.01180583 8.01716505,7.10097087 C5.2415534,6.96170874 2.78042718,5.632 1.13328155,3.61141748 C0.258330097,5.11223301 0.679378641,7.07627184 2.16691262,8.07036893 C1.61941748,8.05304854 1.10423301,7.90275728 0.654058252,7.65258252 C0.617864078,9.19992233 1.72675728,10.6469126 3.33281553,10.9697087 C2.86275728,11.0975534 2.3478835,11.126835 1.82454369,11.0267961 C2.2495534,12.3537087 3.4831068,13.319301 4.94454369,13.3461748 C3.54034951,14.4466796 1.77180583,14.9380194 0,14.7292427 C1.47790291,15.6768155 3.2335534,16.2298252 5.11961165,16.2298252 C11.3203107,16.2298252 14.8236117,10.9923107 14.6125825,6.29499029 C15.265165,5.82407767 15.8313786,5.23580583 16.2792233,4.56605825 L16.2792233,4.56605825 Z" id="twitter-5-icon"></path>
                            </g>
                        </g>
                    </g>
                </g>
            </g>
        </g>
    </g>
</svg>